<?xml version="1.0" ?><!DOCTYPE svg  PUBLIC '-//W3C//DTD SVG 1.1//EN'  'http://www.w3.org/Graphics/SVG/1.1/DTD/svg11.dtd'><svg xmlns="http://www.w3.org/2000/svg" xmlns:xlink="http://www.w3.org/1999/xlink" version="1.1" id="Layer_1" width="241.264" height="247.523" viewBox="0 0 241.264 247.523" style="overflow:visible;enable-background:new 0 0 241.264 247.523;" xml:space="preserve"><g><path style="fill:#81C5E8;stroke:#81C5E8;stroke-width:25;stroke-linecap:round;stroke-linejoin:round;" d="M75.957,144.232h76.308   c11.045,0,20.082-9.036,20.082-20.081v-91.57c0-11.045-9.037-20.081-20.082-20.081H32.581C21.537,12.5,12.5,21.536,12.5,32.581   v91.57v62.653L75.957,144.232z"/></g><g><path style="fill:#FF78C9;stroke:#FF78C9;stroke-width:25;stroke-linecap:round;stroke-linejoin:round;" d="M104.174,168.435   h76.308c11.045,0,20.081-9.037,20.081-20.082v-91.57c0-11.044-9.036-20.081-20.081-20.081H60.798   c-11.044,0-20.082,9.037-20.082,20.081v91.57v62.652L104.174,168.435z"/></g><rect x="80.177" y="100.418" style="fill:#FFFFFF;" width="139.12" height="48.814"/><g><g><path style="fill:#FFCC66;" d="M218.786,52.417H84.82c-12.362,0-22.478,10.115-22.478,22.479v172.628l71.029-47.652h85.414    c12.362,0,22.479-10.115,22.479-22.479V74.895C241.264,62.532,231.149,52.417,218.786,52.417z M117.747,134.236H94.71V111.2    h23.037V134.236z M164.67,134.236h-23.037V111.2h23.037V134.236z M211.594,134.236h-23.036V111.2h23.036V134.236z"/></g></g></svg>